# xmcd CD database file
# Copyright (C) 1996 Ti Kan
#
# Track frame offsets:
# 	150
# 	13562
# 	26902
# 	44712
# 	59090
# 	73535
# 	86102
# 	97380
# 	114440
# 	127277
# 	138672
# 	150202
# 	161510
# 	175100
# 	186570
#
# Disc length: 2715 seconds
#
# Revision: 1
# Processed by: cddbd v1.4b41PL1 Copyright (c) Steve Scherf et al.
# Submitted via: DiscPlay 3.4.1
#
DISCID=e10a990f
DTITLE=Various Artist - Super Box Of Soul - Disk 2
DYEAR=1900
DGENRE=
TTITLE0=Higher And Higher
TTITLE1=The Monkey Time
TTITLE2=Drift Away
TTITLE3=There Is
TTITLE4=Love Makes A Woman
TTITLE5=Hey Western Union Man
TTITLE6=The Jerk
TTITLE7=Love Won't Let Me Wait
TTITLE8=Rescue Me
TTITLE9=Love Makes The World Go Round
TTITLE10=Let's Go, Let's Go, Let's Go
TTITLE11=Make Me Your Baby
TTITLE12=It's All Right
TTITLE13=Tell Mama
TTITLE14=A Rainy Night In Georgia
EXTD=
EXTT0=Jackie Wilson
EXTT1=Major Lance
EXTT2=Dobie Gray
EXTT3=The Dells
EXTT4=Barbara Acklin
EXTT5=Jerry Butler
EXTT6=The Larks
EXTT7=Major Harris
EXTT8=Fontella Bass
EXTT9=Deon Jackson
EXTT10=Hank Ballard
EXTT11=Barbara Lewis
EXTT12=The Impressions
EXTT13=Etta James
EXTT14=Brook Benton
PLAYORDER=
